HIERARCHY
ROOT SpineBase
{
  OFFSET 0.000000 0.000000 0.000000
  CHANNELS 6 Xposition Yposition Zposition Zrotation Xrotation Yrotation
  JOINT SpineMid
  {
    OFFSET 0.000000 27.008261 -0.000000
    CHANNELS 3 Zrotation Xrotation Yrotation
    JOINT SpineShoulder
    {
      OFFSET -0.167780 20.206055 -0.699370
      CHANNELS 3 Zrotation Xrotation Yrotation
      JOINT Neck
      {
        OFFSET -0.074734 6.740831 -0.517263
        CHANNELS 3 Zrotation Xrotation Yrotation
        JOINT Head
        {
          OFFSET -2.245823 12.087476 1.419998
          CHANNELS 3 Zrotation Xrotation Yrotation
          End Site
          {
            OFFSET 0 0 0
          }
        }
      }
      JOINT ShoulderLeft
      {
        OFFSET -11.634280 -2.699665 4.856889
        CHANNELS 3 Zrotation Xrotation Yrotation
        JOINT ElbowLeft
        {
          OFFSET -2.575027 -24.513769 -5.177094
          CHANNELS 3 Zrotation Xrotation Yrotation
          JOINT WristLeft
          {
            OFFSET -1.552368 -16.386195 -12.988679
            CHANNELS 3 Zrotation Xrotation Yrotation
            JOINT HandLeft
            {
              OFFSET -0.519020 -1.279219 -4.707848
              CHANNELS 3 Zrotation Xrotation Yrotation
              JOINT HandTipLeft
              {
                OFFSET -0.130837 -2.300472 -2.590000
                CHANNELS 3 Zrotation Xrotation Yrotation
                End Site
                {
                  OFFSET 0 0 0
                }
              }
              JOINT ThumbLeft
              {
                OFFSET -1.500722 1.987305 -2.031345
                CHANNELS 3 Zrotation Xrotation Yrotation
                End Site
                {
                  OFFSET 0 0 0
                }
              }
            }
          }
        }
      }
      JOINT ShoulderRight
      {
        OFFSET 10.860156 -2.655729 -8.859523
        CHANNELS 3 Zrotation Xrotation Yrotation
        JOINT ElbowRight
        {
          OFFSET 2.364602 -22.522317 -5.350033
          CHANNELS 3 Zrotation Xrotation Yrotation
          JOINT WristRight
          {
            OFFSET -2.174127 -19.729691 -7.989967
            CHANNELS 3 Zrotation Xrotation Yrotation
            JOINT HandRight
            {
              OFFSET -2.980882 -5.755508 -3.313916
              CHANNELS 3 Zrotation Xrotation Yrotation
              JOINT HandTipRight
              {
                OFFSET -1.315219 -4.739836 -1.391446
                CHANNELS 3 Zrotation Xrotation Yrotation
                End Site
                {
                  OFFSET 0 0 0
                }
              }
              JOINT ThumbRight
              {
                OFFSET -0.719643 -4.235678 -0.671034
                CHANNELS 3 Zrotation Xrotation Yrotation
                End Site
                {
                  OFFSET 0 0 0
                }
              }
            }
          }
        }
      }
    }
  }
  JOINT HipLeft
  {
    OFFSET -5.580800 0.692660 -0.606154
    CHANNELS 3 Zrotation Xrotation Yrotation
    JOINT KneeLeft
    {
      OFFSET -1.030782 -28.540976 -4.891905
      CHANNELS 3 Zrotation Xrotation Yrotation
      JOINT AnkleLeft
      {
        OFFSET 9.527765 -36.000343 16.297662
        CHANNELS 3 Zrotation Xrotation Yrotation
        JOINT FootLeft
        {
          OFFSET -3.630984 -6.136218 0.016787
          CHANNELS 3 Zrotation Xrotation Yrotation
          End Site
          {
            OFFSET 0 0 0
          }
        }
      }
    }
  }
  JOINT HipRight
  {
    OFFSET 5.013927 1.306132 -5.424828
    CHANNELS 3 Zrotation Xrotation Yrotation
    JOINT KneeRight
    {
      OFFSET 3.866064 -28.565825 -6.241411
      CHANNELS 3 Zrotation Xrotation Yrotation
      JOINT AnkleRight
      {
        OFFSET 0.765362 -31.221123 2.171702
        CHANNELS 3 Zrotation Xrotation Yrotation
        JOINT FootRight
        {
          OFFSET -4.348000 -1.955702 -9.755543
          CHANNELS 3 Zrotation Xrotation Yrotation
          End Site
          {
            OFFSET 0 0 0
          }
        }
      }
    }
  }
}
MOTION
Frames: 15
Frame Time: 0.033333
14.199092 70.448519 379.079270 4.534253 -2.882027 9.326580 -0.203667 0.320237 -9.090330 -0.186051 0.153208 0.158781 -1.126064 -5.862382 -2.017107 0.000000 0.000000 0.000000 -11.930912 -29.578914 3.179025 0.192948 2.207856 5.752660 10.765705 -12.740574 12.098176 -3.562920 24.637381 -10.884183 0.000000 0.000000 0.000000 0.000000 0.000000 0.000000 20.113114 -9.738519 -5.785364 -23.641879 21.704899 5.819304 4.847524 -8.365342 -2.855274 2.786685 0.385669 2.505281 0.000000 0.000000 0.000000 0.000000 0.000000 0.000000 -11.052600 19.268944 -6.655260 11.489661 0.977528 6.019632 86.391320 17.551975 -71.895142 0.000000 0.000000 0.000000 -18.573927 44.945153 6.471976 33.267547 -54.037835 11.251942 -10.373873 9.930634 -3.071995 0.000000 0.000000 0.000000
11.874948 67.101034 378.489475 3.563549 -3.673647 7.964532 -0.278185 0.347566 -7.764568 -0.209392 0.118021 0.114865 -2.169134 -5.945940 -1.920393 0.000000 0.000000 0.000000 -12.644652 -30.317191 3.413837 0.716740 5.478126 6.466797 12.311087 -18.977981 14.358812 -6.844407 26.350515 -6.375769 0.000000 0.000000 0.000000 0.000000 0.000000 0.000000 20.667485 -6.430792 -6.170352 -26.441399 21.987151 6.735352 1.641541 -2.655605 -5.348914 6.613790 -2.544870 3.327490 0.000000 0.000000 0.000000 0.000000 0.000000 0.000000 -9.398111 21.935765 -5.479219 19.173239 -8.569801 9.930016 76.505344 33.748782 -109.096915 0.000000 0.000000 0.000000 -17.602978 50.606687 9.211654 37.893357 -61.552396 17.689804 -12.605953 12.200863 3.402101 0.000000 0.000000 0.000000
10.322313 63.325219 377.694260 3.093641 -4.258387 7.476686 -0.359436 0.350339 -7.293679 -0.208947 0.080153 0.092188 -1.511219 -6.482590 -2.105189 0.000000 0.000000 0.000000 -13.979190 -30.464748 3.552286 1.880623 7.007823 6.422322 12.977029 -21.081939 15.181143 -10.212268 26.173735 -0.679843 0.000000 0.000000 0.000000 0.000000 0.000000 0.000000 22.628085 -4.033798 -6.879055 -34.229167 22.727771 9.879082 3.187904 0.592699 -7.729833 10.262671 -2.651463 3.614791 0.000000 0.000000 0.000000 0.000000 0.000000 0.000000 -9.719848 24.932418 -4.535367 28.816627 -17.434036 15.331086 76.340519 57.104015 -142.877006 0.000000 0.000000 0.000000 -20.455793 56.406143 13.639937 50.489876 -67.972901 30.059960 -15.070305 14.389784 7.946197 0.000000 0.000000 0.000000
9.019050 59.048344 376.073414 3.574706 -4.308189 5.813075 -0.518450 0.349478 -5.594467 -0.354046 0.152636 0.098980 -1.840926 -7.594498 -2.302444 0.000000 0.000000 0.000000 -15.058834 -26.878578 3.493125 2.190152 1.741739 6.554173 13.561396 -25.762550 13.277286 -13.956911 28.056207 8.268564 0.000000 0.000000 0.000000 0.000000 0.000000 0.000000 24.302754 -2.594169 -7.491056 -44.020755 24.744358 13.858957 6.895212 -1.063015 -8.816295 10.252699 -1.890092 3.451824 0.000000 0.000000 0.000000 0.000000 0.000000 0.000000 -14.817711 26.042399 -0.971651 40.295721 -23.342068 20.675991 91.786034 72.837574 -173.083039 0.000000 0.000000 0.000000 -29.493363 60.942999 22.946582 71.576774 -71.833010 50.176941 -17.750349 16.191010 11.094776 0.000000 0.000000 0.000000
8.273072 54.714437 374.219404 4.684650 -3.988553 4.122156 -0.615043 0.253911 -3.835634 -0.352814 -0.021619 0.144468 -3.025502 -8.284030 -2.455417 0.000000 0.000000 0.000000 -16.223749 -23.640437 3.419464 2.176604 -1.727340 6.534966 13.398803 -24.181032 13.339567 -15.087253 26.605989 10.250935 0.000000 0.000000 0.000000 0.000000 0.000000 0.000000 26.270220 -2.539686 -8.280147 -55.829184 27.067733 19.042724 8.526598 -4.085490 -8.663564 12.018670 -2.225475 2.681843 0.000000 0.000000 0.000000 0.000000 0.000000 0.000000 -21.025419 25.686224 2.692602 50.148718 -26.808428 24.853374 140.336712 80.478904 131.876537 0.000000 0.000000 0.000000 -41.923393 63.157742 34.251951 94.460381 -71.743027 71.439900 -20.492868 17.722880 12.064113 0.000000 0.000000 0.000000
7.782265 50.457005 372.334954 6.120914 -3.797822 2.250175 -0.604011 0.237844 -1.876498 -0.301148 -0.120374 0.211521 -3.196423 -8.939400 -2.724762 0.000000 0.000000 0.000000 -16.455368 -20.133775 3.228000 0.393953 -3.943647 7.665106 13.736268 -30.480365 11.972929 -16.214666 29.526346 14.414033 0.000000 0.000000 0.000000 0.000000 0.000000 0.000000 27.467902 -2.987697 -8.928313 -66.486548 28.841455 24.008870 6.976623 -7.415076 -7.945388 13.715027 -4.060358 1.447814 0.000000 0.000000 0.000000 0.000000 0.000000 0.000000 -24.653074 23.632230 5.076652 54.592137 -27.811631 26.337563 -170.390614 79.068033 80.853427 0.000000 0.000000 0.000000 -56.100793 63.479520 46.606770 109.290463 -69.773646 84.509322 -21.964922 18.360206 9.122500 0.000000 0.000000 0.000000
7.780058 46.070809 370.185946 8.517044 -3.264616 -0.148999 -0.419491 -0.483493 0.686907 -0.547116 0.088284 0.300485 -3.365643 -8.310940 -2.877878 0.000000 0.000000 0.000000 -18.064629 -17.134369 3.005199 -0.197563 -6.097124 7.698383 13.208726 -30.986096 10.562868 -16.895394 28.646280 16.595539 0.000000 0.000000 0.000000 0.000000 0.000000 0.000000 27.422890 -4.210998 -9.378568 -75.844212 29.874952 28.940479 1.021832 -9.175907 -7.335216 13.685545 2.301912 -1.971302 0.000000 0.000000 0.000000 0.000000 0.000000 0.000000 -31.233182 20.101950 8.309382 58.310177 -27.436355 25.691033 -161.820427 74.825561 70.134557 0.000000 0.000000 0.000000 -65.936767 58.384174 52.011437 113.065112 -66.562294 84.182565 -23.250520 19.742699 3.002121 0.000000 0.000000 0.000000
8.455573 41.896478 368.600162 11.693572 -4.347034 2.194212 -0.561106 0.424069 -1.414670 -0.327295 -0.248501 0.462597 -3.143596 -5.651345 -3.033799 0.000000 0.000000 0.000000 -21.421259 -12.331669 2.975103 0.301779 -9.738734 7.074858 13.220124 -32.006760 11.887530 -17.071532 27.078991 16.959283 0.000000 0.000000 0.000000 0.000000 0.000000 0.000000 27.135027 -7.607463 -9.747632 -86.784249 31.248229 36.203531 0.621121 -16.891494 -7.080695 11.452716 17.873572 -5.133000 0.000000 0.000000 0.000000 0.000000 0.000000 0.000000 -40.927475 20.813155 9.602969 62.829347 -26.486887 23.954428 -163.218394 74.701564 71.238832 0.000000 0.000000 0.000000 -73.549364 56.042102 53.351864 112.671322 -63.276044 78.111826 -23.452115 19.408801 -3.110597 0.000000 0.000000 0.000000
9.151771 38.159830 367.987172 15.784543 -5.915030 5.911977 -0.633998 1.048033 -4.704061 -0.130517 -0.697950 0.696774 -4.799253 -3.777595 -3.461845 0.000000 0.000000 0.000000 -24.459927 -8.396729 3.095261 -0.237799 -11.434260 6.964256 13.447832 -31.568287 14.527719 -17.485440 27.764790 17.040391 0.000000 0.000000 0.000000 0.000000 0.000000 0.000000 25.242296 -10.339718 -10.334471 -96.531674 31.226400 43.250371 4.021676 -25.551608 -6.667529 2.906527 35.130008 -4.656000 0.000000 0.000000 0.000000 0.000000 0.000000 0.000000 -54.815801 25.057109 13.286600 72.722225 -27.857673 25.948202 -153.668848 71.963112 60.919374 0.000000 0.000000 0.000000 -85.111418 57.922331 59.744732 118.075724 -61.608280 80.570943 -22.446026 19.643976 -10.977091 0.000000 0.000000 0.000000
9.470432 35.050564 368.433443 19.773418 -8.526949 10.529030 -0.909294 1.375811 -8.571500 -0.099279 -0.454508 0.826942 -6.198883 -2.315372 -3.992840 0.000000 0.000000 0.000000 -26.887497 -5.615843 3.535473 -0.695889 -12.391138 6.861827 12.913331 -29.804113 13.984758 -17.294261 27.241679 16.708679 0.000000 0.000000 0.000000 0.000000 0.000000 0.000000 23.763148 -12.253266 -11.221690 -104.232609 29.875583 48.777515 12.345700 -35.259190 -4.390508 -18.015189 44.224388 4.382684 0.000000 0.000000 0.000000 0.000000 0.000000 0.000000 -68.418426 33.643983 20.559833 82.468925 -30.570630 31.828032 -149.553035 68.530905 55.280626 0.000000 0.000000 0.000000 -102.983484 61.914927 74.971154 126.647097 -61.444023 88.708446 -18.851002 14.232333 -15.814190 0.000000 0.000000 0.000000
9.342656 33.161587 369.610054 24.079831 -11.929880 12.702181 -1.413641 1.655133 -9.555603 -0.111659 -0.470346 0.988091 -6.399351 -0.621958 -4.886441 0.000000 0.000000 0.000000 -28.598139 -2.814869 4.275658 -1.652273 -12.150691 6.908619 13.125969 -28.622603 16.785965 -16.457488 24.140561 13.233103 0.000000 0.000000 0.000000 0.000000 0.000000 0.000000 17.870812 -12.090576 -11.836193 -107.989475 29.297765 54.697350 27.472984 -40.099161 -0.245921 -23.002388 48.200060 5.397239 0.000000 0.000000 0.000000 0.000000 0.000000 0.000000 -82.724951 39.482910 31.873607 90.438699 -32.773956 38.696537 -149.057249 65.440912 53.042270 0.000000 0.000000 0.000000 -121.288478 62.140343 91.678149 132.512942 -60.654125 95.579807 -18.885632 14.530846 -16.355295 0.000000 0.000000 0.000000
8.479843 32.054281 371.857780 26.700550 -16.483092 14.488410 -1.422123 1.430234 -9.826726 -0.224374 -0.578870 1.112646 -2.397672 1.917184 -6.918472 0.000000 0.000000 0.000000 -28.578622 0.997271 5.370341 -2.952238 -11.484985 7.136792 13.671274 -27.736086 20.794637 -15.996248 22.547367 9.739930 0.000000 0.000000 0.000000 0.000000 0.000000 0.000000 16.322826 -12.183743 -13.486630 -111.076821 28.559174 58.839883 36.086997 -38.846614 1.795524 -27.695284 42.701441 6.397252 0.000000 0.000000 0.000000 0.000000 0.000000 0.000000 -96.192876 46.375989 46.887505 96.381079 -35.395419 48.292404 -151.338286 64.144658 54.071084 0.000000 0.000000 0.000000 -141.529378 60.875335 113.769407 140.039286 -59.686999 106.874481 -17.909843 12.680039 -19.719532 0.000000 0.000000 0.000000
7.905495 31.408014 373.941049 28.962520 -20.639864 13.329564 -1.419051 1.089885 -7.103284 -0.293864 -0.539769 1.196231 5.048272 3.508056 -10.518387 0.000000 0.000000 0.000000 -28.440111 2.548912 6.429664 -4.467684 -9.447569 7.895406 11.589815 -12.443669 27.508129 -17.203490 11.762619 -0.332490 0.000000 0.000000 0.000000 0.000000 0.000000 0.000000 15.808371 -12.877207 -15.070577 -112.761384 27.475653 61.464602 51.186743 -37.096459 5.033623 -34.513910 36.779650 7.874611 0.000000 0.000000 0.000000 0.000000 0.000000 0.000000 -108.424081 46.447696 59.929710 101.118634 -36.697308 55.455573 -156.258627 64.596960 58.279749 0.000000 0.000000 0.000000 -154.790066 54.517990 128.053046 148.598041 -57.106073 118.913348 -17.008885 10.790635 -23.197927 0.000000 0.000000 0.000000
7.034804 31.643433 375.429617 30.553243 -23.943321 9.477971 -1.353657 0.657146 -1.920747 -0.434715 -0.398149 1.241973 12.683896 3.325101 -14.434974 0.000000 0.000000 0.000000 -27.563562 4.062372 6.940933 -8.235333 -9.259436 11.333832 9.686909 6.661059 28.343656 -26.239299 1.234377 4.640452 0.000000 0.000000 0.000000 0.000000 0.000000 0.000000 14.669851 -13.069831 -16.052606 -111.105769 29.813939 62.545940 56.892186 -37.854582 8.018251 -37.811197 35.243387 8.834876 0.000000 0.000000 0.000000 0.000000 0.000000 0.000000 -115.083550 41.637181 66.226747 104.346854 -37.051622 59.454718 -165.043453 67.064407 67.310749 0.000000 0.000000 0.000000 -161.631554 48.925571 135.413186 154.454118 -54.878578 130.119513 -16.359066 9.180370 -25.611183 0.000000 0.000000 0.000000
5.437907 31.848586 376.541786 31.690749 -26.492705 4.716719 -1.008735 0.063100 3.922889 -0.515757 -0.351051 1.297205 17.108103 2.824096 -17.361085 0.000000 0.000000 0.000000 -27.629624 4.339656 7.862340 -6.329507 -6.408793 8.854369 2.106448 33.182764 24.196170 -33.114085 -17.717180 2.932710 0.000000 0.000000 0.000000 0.000000 0.000000 0.000000 17.441482 -13.517758 -18.494138 -110.861498 29.839994 60.473576 58.132304 -35.621966 7.009390 -35.262750 29.353088 8.088060 0.000000 0.000000 0.000000 0.000000 0.000000 0.000000 -113.460553 39.392395 66.012680 100.195791 -38.186236 59.374927 -169.572100 66.217036 70.647282 0.000000 0.000000 0.000000 -167.357970 43.981736 141.093223 159.362252 -52.089783 141.477498 -15.883095 7.826234 -27.178536 0.000000 0.000000 0.000000
